<svg version="1.1" id="Layer_1" xmlns="http://www.w3.org/2000/svg" xmlns:xlink="http://www.w3.org/1999/xlink" x="0px" y="0px" enable-background="new 0 0 1024 1024" xml:space="preserve" viewBox="392.82 313.95 208.93 217.18">

<path fill="#FCAB32" opacity="1.000000" stroke="none" d=" M468.462891,442.697876   C465.401794,437.371979 462.869049,432.115540 459.521057,427.443268   C456.830536,423.688416 457.214508,420.611847 459.372375,417.047058   C464.672272,408.291718 469.737213,399.390198 475.223328,390.755005   C476.218903,389.187927 478.709686,387.854065 480.607178,387.712494   C486.074585,387.304565 491.593964,387.644592 497.087036,387.486542   C498.173523,387.455261 499.233765,386.513092 500.306122,385.990967   C499.196899,385.343842 498.110229,384.187775 496.974548,384.137482   C491.986145,383.916565 486.975067,383.830231 481.988922,384.059143   C478.301636,384.228424 476.177399,383.356964 474.269073,379.636169   C469.448181,370.236389 463.871002,361.216919 458.403961,352.161499   C457.018646,349.866913 456.955383,348.223175 458.368073,345.884613   C464.110840,336.378082 469.502991,326.658905 475.301453,317.187744   C476.221130,315.685547 478.541504,314.198792 480.249420,314.157562   C491.570251,313.884064 502.902405,313.908478 514.226013,314.109100   C515.877747,314.138397 518.218262,315.186035 519.027405,316.505890   C525.067444,326.357910 530.899170,336.343170 536.518372,346.441223   C537.283325,347.815918 537.138733,350.399872 536.343445,351.826355   C530.846985,361.685120 525.185364,371.459015 519.253174,381.060181   C518.323425,382.565002 515.829834,383.613190 513.917847,383.887970   C510.651642,384.357391 507.268829,383.959076 503.945557,384.130493   C503.169891,384.170502 502.436676,385.033325 501.683929,385.517578   C502.441589,386.188477 503.130402,387.311340 503.970764,387.439362   C505.926208,387.737244 508.027069,387.903290 509.940308,387.504730   C516.230042,386.194489 519.681580,389.392975 522.405762,394.479889   C526.229858,401.620392 529.783081,409.000061 534.458130,415.560608   C538.130127,420.713562 537.142944,424.878418 534.431641,429.473419   C529.629395,437.611786 524.648315,445.647247 519.987183,453.864777   C518.448914,456.576782 516.636230,457.384247 513.604919,457.325928   C503.280060,457.127319 492.934845,456.930206 482.626648,457.389496   C477.800629,457.604523 475.340424,455.600494 473.425262,451.739929   C471.953033,448.772095 470.243317,445.922058 468.462891,442.697876  z" data-index="1" style="opacity: 1; visibility: visible; fill: rgb(252, 209, 82);"/>
<path fill="#FCAB32" opacity="1.000000" stroke="none" d=" M473.391541,524.837708   C467.631226,515.013977 462.080750,505.491119 456.543274,495.990509   C462.838776,485.291718 469.173676,474.675507 475.327698,463.955475   C476.746582,461.483826 478.283173,460.746063 481.208954,460.851898   C490.020294,461.170776 498.914154,461.611328 507.654633,460.760040   C515.231628,460.022095 519.601318,462.761871 522.960754,469.185852   C527.754883,478.353149 533.072632,487.246643 538.065369,496.077698   C532.271729,506.156616 526.365173,516.023865 520.915771,526.137390   C519.053833,529.592957 517.101440,531.195129 513.025635,531.073242   C503.211151,530.779907 493.367767,530.667358 483.564392,531.109619   C478.504913,531.337830 475.244781,529.941956 473.391541,524.837708  z" data-index="2" style="opacity: 1; visibility: visible; fill: rgb(252, 209, 82);"/>
<path fill="#FCAB32" opacity="1.000000" stroke="none" d=" M467.018738,470.118073   C462.834320,477.335846 458.994324,484.336975 454.708038,491.053314   C453.709412,492.618011 451.214996,494.069946 449.372253,494.116119   C438.219055,494.395630 427.051941,494.388611 415.898254,494.116943   C414.020844,494.071198 411.414734,492.748535 410.457947,491.203125   C404.611298,481.759918 399.014252,472.152954 393.678192,462.411987   C392.805267,460.818481 392.907928,457.888062 393.803070,456.258667   C399.633331,445.646179 405.806824,435.222260 411.973419,424.554382   C424.631989,424.554382 437.455750,424.490723 450.276886,424.647430   C451.642426,424.664124 453.587250,425.613647 454.256470,426.732605   C460.278625,436.801636 466.237000,446.919006 471.771240,457.259216   C472.639221,458.880890 471.639191,461.828735 470.852386,463.918427   C470.055023,466.036285 468.451172,467.850464 467.018738,470.118073  z" data-index="3" style="opacity: 1; visibility: visible; fill: rgb(252, 209, 82);"/>
<path fill="#FCAB32" opacity="1.000000" stroke="none" d=" M401.463074,402.800201   C399.107910,398.950562 397.042511,395.349976 394.731750,391.914398   C392.158813,388.088959 392.194061,384.792755 394.819000,380.727570   C400.246246,372.322479 405.149384,363.570160 410.042114,354.834106   C411.473755,352.277832 413.163849,351.468292 415.998962,351.504730   C427.325562,351.650452 438.656921,351.467041 449.981598,351.674042   C451.512177,351.702026 453.644684,352.874268 454.430084,354.166168   C460.354065,363.910400 466.100555,373.767120 471.647308,383.730774   C472.418304,385.115662 472.471405,387.660797 471.705170,389.019135   C466.173523,398.825317 460.459351,408.535400 454.495026,418.083557   C453.535706,419.619293 451.061188,421.035248 449.252777,421.078735   C438.097412,421.346954 426.931000,421.113129 415.771332,421.268280   C413.088806,421.305542 411.556183,420.542267 410.283356,418.139862   C407.581299,413.039856 404.544312,408.117310 401.463074,402.800201  z" data-index="4" style="opacity: 1; visibility: visible; fill: rgb(252, 209, 82);"/>
<path fill="#FCAB32" opacity="1.000000" stroke="none" d=" M522.155762,387.992371   C522.201965,386.004150 522.007385,384.061829 522.790283,382.668884   C528.223450,373.002228 533.914368,363.480804 539.390076,353.837555   C540.665161,351.592041 542.011902,350.599518 544.803101,350.659973   C555.945740,350.901245 567.097839,350.910492 578.242249,350.738556   C581.493103,350.688416 583.011047,352.032440 584.507263,354.724091   C589.650757,363.976959 595.004456,373.118225 600.509460,382.161163   C601.939941,384.511017 602.219666,386.245453 600.764099,388.678436   C594.986389,398.335999 589.476807,408.154297 583.667419,417.792297   C582.918335,419.035126 581.008301,420.297333 579.615662,420.320343   C567.638855,420.518097 555.656006,420.516815 543.679199,420.318848   C542.288696,420.295868 540.380066,419.042206 539.633606,417.803528   C533.751648,408.042755 528.093994,398.146820 522.155762,387.992371  z" data-index="5" style="opacity: 1; visibility: visible; fill: rgb(252, 209, 82);"/>
</svg>